<?xml version="1.0" encoding="UTF-8" standalone="no"?>
<!-- Created with Inkscape (http://www.inkscape.org/) -->

<svg
   width="268mm"
   height="120mm"
   viewBox="0 0 268 120"
   version="1.1"
   id="svg1"
   xml:space="preserve"
   xmlns="http://www.w3.org/2000/svg"
   xmlns:svg="http://www.w3.org/2000/svg"><defs
     id="defs1" /><g
     id="layer2"
     style="display:inline"><path
       style="display:inline;fill:#b3babe;fill-opacity:1;stroke-width:0.423704"
       d="m 2.3433816,117.9436 c 0,0 39.0503864,-54.964433 41.5203804,-56.812923 2.705233,-2.64071 10.361801,-9.663369 22.129132,-8.85209 7.147849,1.317475 9.943422,3.402351 12.671283,7.66892 2.14813,3.02355 7.281656,27.05634 7.281656,27.05634 0,0 35.640147,-46.543722 37.110387,-48.590269 2.94046,-3.168844 4.80252,-6.541638 14.29493,-7.556656 11.35223,-0.524786 14.56,7.615016 14.56,7.615016 1.11738,1.980528 14.64329,41.623139 14.64329,41.623139 l 35.26413,-63.417761 20.74089,0.03703 -45.14082,86.082694 -23.85965,-0.0613 -17.01765,-44.594573 c 0,0 -0.25779,-1.06514 -0.73209,-1.773578 -0.45337,-0.396638 -1.08821,-0.39686 -1.9305,0.38768 -0.18713,0.280092 -1.23699,1.639828 -1.23699,1.639828 L 95.839009,109.90142 72.182334,109.68551 61.970358,73.163447 c 0,0 -0.364441,-0.87769 -1.189978,-1.18318 -0.124694,-0.07 -1.016207,-0.10584 -1.646889,0.29691 -0.577992,0.19083 -1.515076,1.64955 -1.515076,1.64955 L 25.951609,117.95108 Z"
       id="path1" /><rect
       style="display:none;fill:#cdad7d;fill-opacity:1;stroke-width:0.268291"
       id="rect1"
       width="16.224302"
       height="7.3804603"
       x="204.26863"
       y="73.068123"
       ry="0" /><path
       style="display:none;fill:#cdad7d;fill-opacity:1;stroke-width:0.15689"
       d="m 204.09089,97.216558 c 0,0 0.1216,26.307542 0.1216,26.550112 0,0 0.14729,2.6154 0.97571,4.49853 0.27696,0.48951 0.7772,1.28337 1.27275,1.86664 0.49554,0.58328 0.9864,0.95596 0.9864,0.95596 1.46054,1.18506 3.27693,1.71781 3.27693,1.71781 4.45008,0.59252 8.85798,0.0463 8.85798,0.0463 1.68875,-0.0936 3.27578,-0.33077 3.71148,-0.74975 1.87131,-1.24742 2.54962,-2.07285 2.54962,-2.07285 1.02694,-1.18506 1.80732,-2.82261 1.80732,-2.82261 0.50207,-1.34098 0.83912,-2.9108 0.83912,-2.9108 0.32502,-1.0175 0.51638,-2.80056 0.4841,-3.02107 0.0484,-0.97027 -0.16136,-3.24158 -0.16136,-3.24158 -0.22477,-2.14084 -0.90367,-3.68262 -0.90367,-3.68262 -0.2877,-0.94314 -1.54913,-3.37389 -1.54913,-3.37389 -0.81028,-1.02756 -2.71099,-2.11695 -2.71099,-2.11695 -0.90988,-0.51881 -2.67872,-1.03643 -3.16283,-1.14668 -1.06503,-0.1764 -10.19848,0.0882 -10.19848,0.0882 l -0.18973,-10.574982 z"
       id="path2" /><path
       style="display:none;fill:#ffffff;fill-opacity:1;stroke-width:0.15689"
       d="m 210.02925,113.97577 9.0689,0.0441 c 0.6504,0.0312 1.39913,-0.12879 2.51736,0.83797 0.10269,0.11694 0.58433,0.87847 0.80683,1.4554 0.17116,0.35864 0.35502,2.38157 0.35502,2.38157 l -0.0323,3.79287 c 0,0.42101 -0.17441,1.39526 -0.32274,1.67593 -0.17116,0.42101 -0.62327,1.35871 -1.38777,1.76413 -0.15975,0.14033 -0.78463,0.36039 -1.54913,0.48513 l -6.97112,-0.13231 c -0.44501,0.0156 -0.9907,-0.16304 -1.16186,-0.39693 -0.37654,-0.34304 -0.7612,-1.0451 -0.80684,-1.27899 -0.13693,-0.0468 -0.21612,-0.5488 -0.38728,-1.23489 z"
       id="path3" /><path
       style="display:none;fill:#cdad7d;fill-opacity:1;stroke-width:0.15689"
       d="m 229.61978,107.51466 h 5.87382 v 25.29317 h -5.85768 z"
       id="path4" /><path
       style="display:none;fill:#cdad7d;fill-opacity:1;stroke-width:0.15689"
       d="m 229.67074,98.736648 h 5.79653 v 7.141512 h -5.79653 z"
       id="path5" /><path
       style="display:none;fill:#0055d4;fill-opacity:1;stroke-width:0.264583"
       d="m 204.91712,80.338074 3.74177,-7.70365 16.53453,0.03891 -4.36653,7.563051 z"
       id="path6" /><path
       style="display:inline;fill:#ffffff;fill-opacity:1;stroke-width:0.392813"
       d="M 202.21292,15.423958 230.23498,2.7265937 222.88144,15.251422 Z"
       id="path7" /><rect
       style="display:none;fill:#cdad7d;fill-opacity:1;stroke-width:0.264583"
       id="rect15"
       width="25.752205"
       height="17.058084"
       x="-54.736294"
       y="152.36978"
       transform="rotate(-50.819562)" /><rect
       style="display:none;fill:#cdad7d;fill-opacity:1;stroke-width:0.264583"
       id="rect15-5"
       width="25.752205"
       height="17.058084"
       x="-24.894825"
       y="185.34593"
       transform="rotate(-50.819562)" /><rect
       style="display:none;fill:#cdad7d;fill-opacity:1;stroke-width:0.264583"
       id="rect24"
       width="15.64"
       height="2.8792892"
       x="58.299141"
       y="80.657684"
       transform="rotate(-0.0536694)" /><path
       style="fill:#b3babe;fill-opacity:1;stroke-width:0.423704"
       d="m 120.53501,75.246307 19.36054,-8.44936 1.56892,4.22594 -25.99493,11.46555 z"
       id="path26" /><path
       style="display:inline;fill:#cdad7d;fill-opacity:1;stroke-width:0.392813"
       d="M 202.21292,15.423958 230.23498,2.7265937 222.88144,15.251422 Z"
       id="path22" /><path
       d="M 212.84489,43.377197 V 85.98855 c 0,12.197654 4.31629,18.13584 12.49794,18.13584 h 9.40563 c 9.01914,0 14.68851,-6.901172 14.68851,-21.185266 0,-14.284095 -5.66937,-21.185271 -14.68851,-21.185271 H 219.67393 V 43.377197 Z m 6.82904,26.561686 h 14.36605 c 5.92686,0 8.50387,3.852 8.50387,13.000241 0,9.14824 -2.57701,12.920141 -8.50387,12.920141 h -6.69985 c -5.54033,0 -7.6662,-3.049429 -7.6662,-10.271724 z"
       style="font-size:71.901px;display:inline;fill:#cdad7d;stroke-width:0.748967"
       id="path27" /><path
       d="m 257.60753,61.441728 v 42.370542 h 6.82904 V 61.441728 Z"
       style="font-size:71.901px;display:inline;fill:#cdad7d;stroke-width:0.748967"
       id="path28" /><path
       style="display:inline;fill:#cdad7d;fill-opacity:1;stroke-width:0.264583"
       d="m 257.56948,45.462519 h 6.98422 v 10.194242 h -7.00368 z"
       id="path23" /></g><g
     id="g22"
     style="display:none"><path
       style="display:inline;fill:#012739;fill-opacity:1;stroke-width:0.264583"
       d="m 67.45249,139.09732 23.604754,-32.06753 c 0,0 1.962936,-5.22654 14.251926,-5.21722 8.33618,-0.20614 11.70695,4.32649 11.70695,4.32649 l 4.76264,16.60672 c 0,0 17.67738,-31.745047 17.94975,-31.939594 0,0 1.54323,-3.933316 9.45777,-4.453726 7.51083,-0.309297 9.63315,4.488122 9.63315,4.488122 l 15.19086,32.895718 24.43188,-42.439421 13.72253,0.02183 -30.30616,51.615651 -15.78595,-0.0361 -16.37383,-29.83695 c 0,0 -0.44806,-0.92569 -0.58303,-1.15064 -0.25869,-0.12372 -0.44525,-0.35771 -1.15384,0.0359 l -0.57079,1.18658 -19.06684,33.10795 -15.65167,-0.12725 -6.75642,-21.5253 c 0,0 -0.33742,-0.6411 -0.78731,-0.69734 0,0 -0.68609,-0.2137 -1.2822,0.0787 -0.38241,0.11247 -0.80981,1.0685 -0.80981,1.0685 l -19.614565,23.99522 z"
       id="path15" /><rect
       style="display:none;fill:#cdad7d;fill-opacity:1;stroke-width:0.268291"
       id="rect16"
       width="16.224302"
       height="7.3804603"
       x="204.26863"
       y="73.068123"
       ry="0" /><path
       style="display:inline;fill:#cdad7d;fill-opacity:1;stroke-width:0.15689"
       d="m 204.09089,97.216558 c 0,0 0.1216,26.307542 0.1216,26.550112 0,0 0.14729,2.6154 0.97571,4.49853 0.27696,0.48951 0.7772,1.28337 1.27275,1.86664 0.49554,0.58328 0.9864,0.95596 0.9864,0.95596 1.46054,1.18506 3.27693,1.71781 3.27693,1.71781 4.45008,0.59252 8.85798,0.0463 8.85798,0.0463 1.68875,-0.0936 3.27578,-0.33077 3.71148,-0.74975 1.87131,-1.24742 2.54962,-2.07285 2.54962,-2.07285 1.02694,-1.18506 1.80732,-2.82261 1.80732,-2.82261 0.50207,-1.34098 0.83912,-2.9108 0.83912,-2.9108 0.32502,-1.0175 0.51638,-2.80056 0.4841,-3.02107 0.0484,-0.97027 -0.16136,-3.24158 -0.16136,-3.24158 -0.22477,-2.14084 -0.90367,-3.68262 -0.90367,-3.68262 -0.2877,-0.94314 -1.54913,-3.37389 -1.54913,-3.37389 -0.81028,-1.02756 -2.71099,-2.11695 -2.71099,-2.11695 -0.90988,-0.51881 -2.67872,-1.03643 -3.16283,-1.14668 -1.06503,-0.1764 -10.19848,0.0882 -10.19848,0.0882 l -0.18973,-10.574982 z"
       id="path16" /><path
       style="fill:#ffffff;fill-opacity:1;stroke-width:0.15689"
       d="m 210.02925,113.97577 9.0689,0.0441 c 0.6504,0.0312 1.39913,-0.12879 2.51736,0.83797 0.10269,0.11694 0.58433,0.87847 0.80683,1.4554 0.17116,0.35864 0.35502,2.38157 0.35502,2.38157 l -0.0323,3.79287 c 0,0.42101 -0.17441,1.39526 -0.32274,1.67593 -0.17116,0.42101 -0.62327,1.35871 -1.38777,1.76413 -0.15975,0.14033 -0.78463,0.36039 -1.54913,0.48513 l -6.97112,-0.13231 c -0.44501,0.0156 -0.9907,-0.16304 -1.16186,-0.39693 -0.37654,-0.34304 -0.7612,-1.0451 -0.80684,-1.27899 -0.13693,-0.0468 -0.21612,-0.5488 -0.38728,-1.23489 z"
       id="path17" /><path
       style="fill:#cdad7d;fill-opacity:1;stroke-width:0.15689"
       d="m 229.61978,107.51466 h 5.87382 v 25.29317 h -5.85768 z"
       id="path18" /><path
       style="fill:#cdad7d;fill-opacity:1;stroke-width:0.15689"
       d="m 229.67074,98.736648 h 5.79653 v 7.141512 h -5.79653 z"
       id="path19" /><path
       style="display:none;fill:#0055d4;fill-opacity:1;stroke-width:0.264583"
       d="m 204.91712,80.338074 3.74177,-7.70365 16.53453,0.03891 -4.36653,7.563051 z"
       id="path20" /><path
       style="display:inline;fill:#cdad7d;fill-opacity:1;stroke-width:0.247855"
       d="m 198.31399,80.558178 18.92897,-7.483546 -4.96734,7.381857 z"
       id="path21" /><rect
       style="fill:#cdad7d;fill-opacity:1;stroke-width:0.264583"
       id="rect21"
       width="25.752205"
       height="17.058084"
       x="-54.736294"
       y="152.36978"
       transform="rotate(-50.819562)" /><rect
       style="display:inline;fill:#cdad7d;fill-opacity:1;stroke-width:0.264583"
       id="rect22"
       width="25.752205"
       height="17.058084"
       x="-24.894825"
       y="185.34593"
       transform="rotate(-50.819562)" /></g><g
     id="g14"
     style="display:none"><path
       style="display:inline;fill:#012739;fill-opacity:1;stroke-width:0.264583"
       d="m 67.45249,139.09732 23.604754,-32.06753 c 0,0 1.962936,-5.22654 14.251926,-5.21722 8.33618,-0.20614 11.70695,4.32649 11.70695,4.32649 l 3.67318,16.60672 16.28791,-31.939594 c 0,0 2.49689,-4.633684 12.97944,-4.453726 10.39012,-0.387116 11.83419,4.708226 11.83419,4.708226 l 17.94216,35.757074 24.43188,-45.300777 16.36378,0.02183 -28.32522,52.404907 c -5.21083,7.01415 -12.97944,6.74422 -12.97944,6.74422 -9.92545,0.89074 -14.25193,-4.70823 -14.25193,-4.70823 l -8.00629,-16.53702 -8.0063,-16.53703 c 0,0 -0.44806,-0.92569 -0.58303,-1.15064 -0.25869,-0.12372 -0.44525,-0.35771 -1.15384,0.0359 l -0.57079,1.18658 -18.32756,33.26359 -15.65167,-0.12725 -6.75642,-21.5253 c 0,0 -0.33742,-0.6411 -0.78731,-0.69734 0,0 -0.68609,-0.2137 -1.2822,0.0787 -0.38241,0.11247 -0.80981,1.0685 -0.80981,1.0685 l -19.614565,23.99522 z"
       id="path8" /><rect
       style="display:none;fill:#cdad7d;fill-opacity:1;stroke-width:0.268291"
       id="rect8"
       width="16.224302"
       height="7.3804603"
       x="204.26863"
       y="73.068123"
       ry="0" /><path
       style="display:inline;fill:#cdad7d;fill-opacity:1;stroke-width:0.15689"
       d="m 213.39192,102.93927 c 0,0 0.1216,26.30754 0.1216,26.55011 0,0 0.14729,2.6154 0.97571,4.49853 0.27696,0.48951 0.7772,1.28337 1.27275,1.86664 0.49554,0.58328 0.9864,0.95596 0.9864,0.95596 1.46054,1.18506 3.27693,1.71781 3.27693,1.71781 4.45008,0.59252 8.85798,0.0463 8.85798,0.0463 1.68875,-0.0936 3.27578,-0.33077 3.71148,-0.74975 1.87131,-1.24742 2.54962,-2.07285 2.54962,-2.07285 1.02694,-1.18506 1.80732,-2.82261 1.80732,-2.82261 0.50207,-1.34098 0.83912,-2.9108 0.83912,-2.9108 0.32502,-1.0175 0.51638,-2.80056 0.4841,-3.02107 0.0484,-0.97027 -0.16136,-3.24158 -0.16136,-3.24158 -0.22477,-2.14084 -0.90367,-3.68262 -0.90367,-3.68262 -0.2877,-0.94314 -1.54913,-3.37389 -1.54913,-3.37389 -0.81028,-1.02756 -2.71099,-2.11695 -2.71099,-2.11695 -0.90988,-0.51881 -2.67872,-1.03643 -3.16283,-1.14668 -1.06503,-0.1764 -10.19848,0.0882 -10.19848,0.0882 l -0.18973,-10.57498 z"
       id="path9" /><path
       style="fill:#ffffff;fill-opacity:1;stroke-width:0.15689"
       d="m 219.33028,119.69848 9.0689,0.0441 c 0.6504,0.0312 1.39913,-0.12879 2.51736,0.83797 0.10269,0.11694 0.58433,0.87847 0.80683,1.4554 0.17116,0.35864 0.35502,2.38157 0.35502,2.38157 l -0.0323,3.79287 c 0,0.42101 -0.17441,1.39526 -0.32274,1.67593 -0.17116,0.42101 -0.62327,1.35871 -1.38777,1.76413 -0.15975,0.14033 -0.78463,0.36039 -1.54913,0.48513 l -6.97112,-0.13231 c -0.44501,0.0156 -0.9907,-0.16304 -1.16186,-0.39693 -0.37654,-0.34304 -0.7612,-1.0451 -0.80684,-1.27899 -0.13693,-0.0468 -0.21612,-0.5488 -0.38728,-1.23489 z"
       id="path10" /><path
       style="fill:#cdad7d;fill-opacity:1;stroke-width:0.15689"
       d="m 238.92081,113.23737 h 5.87382 v 25.29317 h -5.85768 z"
       id="path11" /><path
       style="fill:#cdad7d;fill-opacity:1;stroke-width:0.15689"
       d="m 238.97177,104.45936 h 5.79653 v 7.14151 h -5.79653 z"
       id="path12" /><path
       style="display:none;fill:#0055d4;fill-opacity:1;stroke-width:0.264583"
       d="m 204.91712,80.338074 3.74177,-7.70365 16.53453,0.03891 -4.36653,7.563051 z"
       id="path13" /><path
       style="display:inline;fill:#cdad7d;fill-opacity:1;stroke-width:0.264583"
       d="m 204.91712,80.338074 21.57022,-7.483546 -5.66045,7.381857 z"
       id="path14" /></g></svg>
