<?xml version="1.0" standalone="no"?>
<!DOCTYPE svg PUBLIC "-//W3C//DTD SVG 20010904//EN"
 "http://www.w3.org/TR/2001/REC-SVG-20010904/DTD/svg10.dtd">
<svg version="1.0" xmlns="http://www.w3.org/2000/svg"
 width="746.000000pt" height="334.000000pt" viewBox="0 0 746.000000 334.000000"
 preserveAspectRatio="xMidYMid meet">

<g transform="translate(0.000000,334.000000) scale(0.100000,-0.100000)"
fill="#000000" stroke="none">
<path d="M5552 2748 c-38 -68 -94 -168 -124 -223 -31 -55 -67 -120 -80 -145
-57 -102 -183 -329 -216 -390 -19 -36 -41 -72 -48 -81 -8 -8 -14 -18 -14 -21
0 -3 -50 -94 -111 -204 -161 -286 -167 -298 -244 -437 -38 -70 -74 -126 -80
-124 -5 2 -42 98 -81 215 -83 246 -118 347 -144 417 -10 28 -33 91 -50 140
-66 189 -124 342 -146 387 -32 63 -87 114 -164 151 -58 28 -77 32 -171 35
-170 6 -278 -30 -379 -126 -33 -31 -152 -178 -264 -327 -113 -148 -265 -348
-338 -443 -73 -95 -160 -208 -193 -252 -152 -200 -306 -400 -309 -400 -4 0
-35 120 -76 293 -48 203 -97 373 -123 431 -13 28 -48 76 -78 106 -162 162
-455 172 -717 25 -58 -32 -182 -140 -228 -197 -75 -93 -175 -227 -210 -278
-17 -25 -82 -115 -144 -200 -63 -85 -192 -265 -289 -400 -149 -209 -220 -306
-259 -355 -5 -6 -17 -24 -28 -40 -10 -17 -51 -75 -91 -131 -40 -55 -73 -104
-73 -107 0 -4 144 -7 319 -7 l319 0 49 68 c28 37 95 130 150 207 217 305 372
520 623 865 139 192 173 189 223 -15 3 -11 17 -60 31 -110 14 -49 33 -115 41
-145 8 -30 33 -120 56 -200 49 -171 61 -217 90 -330 12 -47 26 -91 32 -97 7
-10 86 -13 333 -13 l323 0 28 40 c15 23 64 91 109 153 44 62 143 200 219 307
76 107 154 215 175 240 43 53 86 114 195 275 45 66 111 159 146 207 35 48 91
126 124 173 58 82 94 110 115 89 10 -10 103 -254 114 -299 4 -16 23 -66 43
-110 19 -44 67 -163 105 -265 39 -102 80 -207 90 -235 11 -27 24 -63 30 -80 6
-16 14 -34 18 -40 4 -5 26 -63 50 -128 35 -96 48 -121 68 -128 13 -5 161 -8
331 -7 l306 3 58 110 c32 61 108 207 169 325 61 118 128 244 148 280 21 36 79
146 130 245 51 99 112 216 135 260 93 176 139 261 156 291 9 17 68 130 129
250 62 120 125 242 140 269 91 167 180 338 180 349 0 3 -126 6 -279 6 l-279 0
-70 -122z"/>
</g>
</svg>
